<svg width="161" height="42" viewBox="0 0 161 42" fill="none" xmlns="http://www.w3.org/2000/svg">
<path d="M0.568 40V38.656C5.944 38.656 6.264 37.568 8.248 33.088L22.328 0.511997H23.16L37.304 33.088C39.288 37.568 39.608 38.656 44.92 38.656V40H27.192V38.656C32.504 38.656 33.72 37.312 32.184 33.792L29.112 26.688H13.624L10.552 33.792C9.016 37.248 10.232 38.656 15.544 38.656V40H0.568ZM14.648 24.32H28.024L21.304 8.896L14.648 24.32ZM56.9 41.088C49.796 41.088 45.572 36.288 45.572 29.888C45.572 22.336 51.78 17.6 56.9 17.6C62.212 17.6 64.516 19.84 64.516 22.208C64.516 23.232 63.876 24.96 61.7 24.96C60.292 24.96 59.204 23.808 59.204 22.4C59.204 20.288 58.052 19.648 56.9 19.648C53.508 19.648 50.756 24 50.756 29.888C50.756 35.008 53.252 38.4 58.5 38.4C60.612 38.4 63.236 37.44 65.348 35.456L66.436 36.864C64.004 39.488 60.548 41.088 56.9 41.088ZM82.025 41.088C74.921 41.088 70.697 36.288 70.697 29.888C70.697 22.336 76.905 17.6 82.025 17.6C87.337 17.6 89.641 19.84 89.641 22.208C89.641 23.232 89.001 24.96 86.825 24.96C85.417 24.96 84.329 23.808 84.329 22.4C84.329 20.288 83.177 19.648 82.025 19.648C78.633 19.648 75.881 24 75.881 29.888C75.881 35.008 78.377 38.4 83.625 38.4C85.737 38.4 88.361 37.44 90.473 35.456L91.561 36.864C89.129 39.488 85.673 41.088 82.025 41.088ZM101.326 25.344H111.95C112.654 23.296 111.566 20.16 107.342 20.16C104.59 20.16 102.222 22.208 101.326 25.344ZM107.662 41.088C100.622 41.088 95.822 35.776 95.822 29.312C95.822 22.528 101.71 17.6 107.662 17.6C113.358 17.6 117.902 22.208 116.366 27.712H100.942C100.174 33.728 102.67 38.4 109.262 38.4C111.374 38.4 114.446 37.184 116.302 35.456L117.454 36.864C115.214 39.232 111.31 41.088 107.662 41.088ZM122.822 41.088V31.744H124.166C124.166 34.624 126.598 38.912 131.142 38.912C133.254 38.912 134.79 37.44 134.79 35.648C134.79 34.048 133.382 32.896 131.206 31.744L127.622 29.824C124.55 28.16 123.398 25.472 123.398 23.424C123.398 19.968 126.598 17.6 129.862 17.6C133.19 17.6 134.47 19.072 135.302 19.072C135.558 19.072 135.686 18.624 135.686 17.6H137.03V25.024H135.686C135.686 22.336 133.766 19.648 130.502 19.648C128.326 19.648 127.238 20.8 127.238 22.4C127.238 23.936 128.262 24.768 131.142 26.304L134.214 27.968C137.03 29.568 138.63 31.808 138.63 34.112C138.63 38.336 135.174 41.088 131.014 41.088C128.134 41.088 125.894 39.04 124.998 39.04C124.422 39.04 124.166 39.552 124.166 41.088H122.822ZM144.572 41.088V31.744H145.916C145.916 34.624 148.348 38.912 152.892 38.912C155.004 38.912 156.54 37.44 156.54 35.648C156.54 34.048 155.132 32.896 152.956 31.744L149.372 29.824C146.3 28.16 145.148 25.472 145.148 23.424C145.148 19.968 148.348 17.6 151.612 17.6C154.94 17.6 156.22 19.072 157.052 19.072C157.308 19.072 157.436 18.624 157.436 17.6H158.78V25.024H157.436C157.436 22.336 155.516 19.648 152.252 19.648C150.076 19.648 148.988 20.8 148.988 22.4C148.988 23.936 150.012 24.768 152.892 26.304L155.964 27.968C158.78 29.568 160.38 31.808 160.38 34.112C160.38 38.336 156.924 41.088 152.764 41.088C149.884 41.088 147.644 39.04 146.748 39.04C146.172 39.04 145.916 39.552 145.916 41.088H144.572Z" fill="url(#paint0_linear_194_575)"/>
<defs>
<linearGradient id="paint0_linear_194_575" x1="83.5" y1="-14" x2="83.5" y2="57" gradientUnits="userSpaceOnUse">
<stop stop-color="#606060"/>
<stop offset="0.6" stop-color="#C6C6C6"/>
</linearGradient>
</defs>
</svg>
