<svg width="288" height="42" viewBox="0 0 288 42" fill="none" xmlns="http://www.w3.org/2000/svg">
<path d="M0.568 40V38.656C5.944 38.656 6.264 37.568 8.248 33.088L22.328 0.511997H23.16L37.304 33.088C39.288 37.568 39.608 38.656 44.92 38.656V40H27.192V38.656C32.504 38.656 33.72 37.312 32.184 33.792L29.112 26.688H13.624L10.552 33.792C9.016 37.248 10.232 38.656 15.544 38.656V40H0.568ZM14.648 24.32H28.024L21.304 8.896L14.648 24.32ZM53.572 40.896C50.052 40.896 47.62 38.656 47.62 33.728V20.928H44.292V19.392C48.132 18.56 49.54 15.808 49.988 11.648H52.164V18.688H57.732V20.928H52.164V33.728C52.164 36.736 52.996 38.336 55.044 38.336C56.196 38.336 57.732 37.568 59.204 36.16L60.292 37.248C58.5 39.424 55.684 40.896 53.572 40.896ZM72.447 40.896C68.927 40.896 66.495 38.656 66.495 33.728V20.928H63.167V19.392C67.007 18.56 68.415 15.808 68.863 11.648H71.039V18.688H76.607V20.928H71.039V33.728C71.039 36.736 71.871 38.336 73.919 38.336C75.071 38.336 76.607 37.568 78.079 36.16L79.167 37.248C77.375 39.424 74.559 40.896 72.447 40.896ZM88.826 25.344H99.45C100.154 23.296 99.066 20.16 94.842 20.16C92.09 20.16 89.722 22.208 88.826 25.344ZM95.162 41.088C88.122 41.088 83.322 35.776 83.322 29.312C83.322 22.528 89.21 17.6 95.162 17.6C100.858 17.6 105.402 22.208 103.866 27.712H88.442C87.674 33.728 90.17 38.4 96.762 38.4C98.874 38.4 101.946 37.184 103.802 35.456L104.954 36.864C102.714 39.232 98.81 41.088 95.162 41.088ZM109.682 40V38.656C113.906 38.656 114.738 37.568 114.738 31.168V27.968C114.738 21.568 113.906 20.544 109.682 20.544V19.2L118.194 17.6C118.514 18.24 119.09 20.864 119.282 22.208C121.01 20.032 123.954 17.6 128.178 17.6C133.938 17.6 136.498 21.696 136.498 27.136V31.168C136.498 37.568 137.266 38.656 141.554 38.656V40H126.898V38.656C131.058 38.656 131.954 37.568 131.954 31.168V27.456C131.954 23.296 130.482 20.608 126.642 20.608C123.122 20.608 119.282 23.488 119.282 27.008V31.168C119.282 37.76 119.794 38.656 123.762 38.656V40H109.682ZM156.958 41.088C150.878 41.088 145.822 35.776 145.822 29.312C145.822 22.848 150.878 17.6 156.958 17.6C160.158 17.6 162.846 19.008 164.766 21.376V10.944C164.766 4.544 163.998 3.456 159.71 3.456V2.112L169.31 0.511997V31.232C169.31 37.312 170.334 38.08 173.726 38.08V39.296L165.854 40.896C165.534 40.256 165.022 38.208 164.83 37.184C163.038 39.424 160.478 41.088 156.958 41.088ZM158.302 38.528C161.182 38.528 163.614 36.48 164.766 33.472V25.216C163.614 22.208 161.182 20.16 158.302 20.16C153.31 20.16 151.006 24.192 151.006 29.312C151.006 34.432 153.31 38.528 158.302 38.528ZM184.395 40.832C181.259 40.832 178.635 38.848 178.635 35.456C178.635 30.016 184.97 27.648 192.267 26.368C192.267 21.568 191.627 19.648 187.979 19.648C186.507 19.648 184.331 20.672 184.331 22.72C184.331 24 183.371 24.96 182.155 24.96C180.875 24.96 179.915 24 179.915 22.72C179.915 19.648 183.947 17.6 188.043 17.6C194.251 17.6 196.811 20.224 196.811 26.304V35.968C196.811 37.568 197.323 38.464 198.283 38.464C198.923 38.464 199.627 37.952 200.075 37.504L200.971 38.72C199.755 40 198.155 40.704 196.747 40.704C194.251 40.704 192.715 39.296 192.395 36.992C189.259 39.808 186.955 40.832 184.395 40.832ZM186.443 37.952C187.787 37.952 189.323 37.504 192.267 34.88V28.352C186.187 29.76 183.435 31.872 183.435 34.688C183.435 36.736 184.843 37.952 186.443 37.952ZM204.432 40V38.656C208.656 38.656 209.488 37.568 209.488 31.168V27.968C209.488 21.568 208.656 20.544 204.432 20.544V19.2L212.944 17.6C213.264 18.24 213.84 20.864 214.032 22.208C215.76 20.032 218.704 17.6 222.928 17.6C228.688 17.6 231.248 21.696 231.248 27.136V31.168C231.248 37.568 232.016 38.656 236.304 38.656V40H221.648V38.656C225.808 38.656 226.704 37.568 226.704 31.168V27.456C226.704 23.296 225.232 20.608 221.392 20.608C217.872 20.608 214.032 23.488 214.032 27.008V31.168C214.032 37.76 214.544 38.656 218.512 38.656V40H204.432ZM251.9 41.088C244.796 41.088 240.572 36.288 240.572 29.888C240.572 22.336 246.78 17.6 251.9 17.6C257.212 17.6 259.516 19.84 259.516 22.208C259.516 23.232 258.876 24.96 256.7 24.96C255.292 24.96 254.204 23.808 254.204 22.4C254.204 20.288 253.052 19.648 251.9 19.648C248.508 19.648 245.756 24 245.756 29.888C245.756 35.008 248.252 38.4 253.5 38.4C255.612 38.4 258.236 37.44 260.348 35.456L261.436 36.864C259.004 39.488 255.548 41.088 251.9 41.088ZM271.201 25.344H281.825C282.529 23.296 281.441 20.16 277.217 20.16C274.465 20.16 272.097 22.208 271.201 25.344ZM277.537 41.088C270.497 41.088 265.697 35.776 265.697 29.312C265.697 22.528 271.585 17.6 277.537 17.6C283.233 17.6 287.777 22.208 286.241 27.712H270.817C270.049 33.728 272.545 38.4 279.137 38.4C281.249 38.4 284.321 37.184 286.177 35.456L287.329 36.864C285.089 39.232 281.185 41.088 277.537 41.088Z" fill="url(#paint0_linear_194_593)"/>
<defs>
<linearGradient id="paint0_linear_194_593" x1="146.5" y1="-14" x2="146.5" y2="57" gradientUnits="userSpaceOnUse">
<stop stop-color="#606060"/>
<stop offset="0.7" stop-color="#C6C6C6"/>
</linearGradient>
</defs>
</svg>
