<svg width="127" height="16" viewBox="0 0 127 16" fill="none" xmlns="http://www.w3.org/2000/svg">
<path d="M0.138563 15V14.496C2.13056 14.496 2.41856 14.088 2.41856 11.688V3.888C2.41856 1.488 2.13056 1.104 0.138563 1.104V0.599999H6.61856V1.104C4.62656 1.104 4.33856 1.488 4.33856 3.888V6.912H12.4746V3.888C12.4746 1.488 12.1626 1.104 10.1706 1.104V0.599999H16.6986V1.104C14.6826 1.104 14.3946 1.488 14.3946 3.888V11.688C14.3946 14.088 14.6826 14.496 16.6986 14.496V15H10.1706V14.496C12.1626 14.496 12.4746 14.088 12.4746 11.688V7.8H4.33856V11.688C4.33856 14.088 4.62656 14.496 6.61856 14.496V15H0.138563ZM18.4901 15V14.496C20.0741 14.496 20.3861 14.088 20.3861 11.688V10.488C20.3861 8.088 20.0741 7.704 18.4901 7.704V7.2L22.0901 6.6V11.688C22.0901 14.088 22.3781 14.496 23.9861 14.496V15H18.4901ZM21.2261 4.248C20.6501 4.248 20.1701 3.768 20.1701 3.168C20.1701 2.592 20.6501 2.112 21.2261 2.112C21.8021 2.112 22.2821 2.592 22.2821 3.168C22.2821 3.768 21.8021 4.248 21.2261 4.248ZM24.9013 15V14.496C26.5093 14.496 26.7973 14.088 26.7973 11.688V4.104C26.7973 1.704 26.5093 1.296 24.9013 1.296V0.792L28.5013 0.191999V10.392L30.5173 8.76C31.3093 8.112 30.9733 7.488 29.7973 7.488V7.008H34.5973V7.488C34.5973 7.488 33.0133 7.584 32.0773 8.352L30.0373 10.032L33.9013 13.92C34.3093 14.328 35.0053 14.496 35.3173 14.496V15H32.6533L28.7893 11.016L28.5013 11.256V11.688C28.5013 14.088 28.8133 14.496 30.3973 14.496V15H24.9013ZM38.3276 15.312C37.1516 15.312 36.1676 14.568 36.1676 13.296C36.1676 11.256 38.5436 10.368 41.2796 9.888C41.2796 8.088 41.0396 7.368 39.6716 7.368C39.1196 7.368 38.3036 7.752 38.3036 8.52C38.3036 9 37.9436 9.36 37.4876 9.36C37.0076 9.36 36.6476 9 36.6476 8.52C36.6476 7.368 38.1596 6.6 39.6956 6.6C42.0236 6.6 42.9836 7.584 42.9836 9.864V13.488C42.9836 14.088 43.1756 14.424 43.5356 14.424C43.7756 14.424 44.0396 14.232 44.2076 14.064L44.5436 14.52C44.0876 15 43.4876 15.264 42.9596 15.264C42.0236 15.264 41.4476 14.736 41.3276 13.872C40.1516 14.928 39.2876 15.312 38.3276 15.312ZM39.0956 14.232C39.5996 14.232 40.1756 14.064 41.2796 13.08V10.632C38.9996 11.16 37.9676 11.952 37.9676 13.008C37.9676 13.776 38.4956 14.232 39.0956 14.232ZM45.8417 15V14.496C47.4257 14.496 47.7377 14.088 47.7377 11.688V10.488C47.7377 8.088 47.4257 7.704 45.8417 7.704V7.2L49.0337 6.6C49.1537 6.84 49.3697 7.824 49.4417 8.328C49.9217 7.368 51.0017 6.6 51.9617 6.6C53.2817 6.6 53.8577 7.488 53.8577 8.088C53.8577 8.616 53.6417 9.216 52.8977 9.216C52.4417 9.216 52.0577 8.808 52.0577 8.352C52.0577 7.848 51.7697 7.56 51.2897 7.56C50.7377 7.56 49.4417 8.448 49.4417 10.368V11.688C49.4417 14.088 49.7297 14.496 51.3377 14.496V15H45.8417ZM59.6796 15.408C57.4716 15.408 56.7036 13.848 56.7036 11.808V10.296C56.7036 7.896 56.4156 7.488 54.8076 7.488V7.008H58.4076V11.688C58.4076 13.248 58.9356 14.256 60.2316 14.256C61.1676 14.256 62.8236 13.368 62.8236 11.88V10.296C62.8236 7.896 62.5116 7.488 60.9036 7.488V7.008H64.5036V11.712C64.5036 13.992 64.8876 14.28 66.1596 14.28V14.736L63.2076 15.336C63.0876 15.096 62.8716 14.28 62.8236 13.872C62.2236 14.496 61.0716 15.408 59.6796 15.408ZM72.4826 6.432C74.1626 5.472 75.7226 4.584 75.7226 2.952C75.7226 1.896 74.9066 1.128 73.8266 1.128C72.2906 1.128 71.5466 2.328 71.5466 3.264C71.5466 4.368 71.8826 5.352 72.4826 6.432ZM73.3226 14.472C74.5706 14.472 75.4826 13.968 76.1306 13.2C74.4026 11.376 72.8426 9.672 71.7386 8.112C70.8506 8.88 70.1306 9.792 70.1306 11.4C70.1306 12.96 71.4506 14.472 73.3226 14.472ZM73.1306 15.408C70.8506 15.408 68.4026 14.088 68.4026 11.208C68.4026 9.288 69.6506 8.184 71.1386 7.248C70.2986 5.928 69.8186 4.728 69.8186 3.648C69.8186 1.656 71.6426 0.191999 73.8266 0.191999C75.6746 0.191999 77.2586 1.32 77.2586 2.952C77.2586 5.088 74.9066 5.832 72.9386 7.176C73.8266 8.496 75.1226 9.984 76.8506 11.88C77.0186 11.424 77.1386 10.944 77.1866 10.44C77.4026 8.688 77.0666 8.28 75.0746 8.28V7.776H80.4986V8.28C78.4826 8.28 78.2426 8.76 78.0026 10.44C77.9066 11.208 77.7386 11.928 77.4506 12.528C78.3866 13.608 79.4666 14.448 80.3546 14.448C80.7866 14.448 81.3146 14.208 81.9146 13.608L82.3226 14.016C81.6506 14.928 80.6906 15.408 79.8986 15.408C78.6026 15.408 77.6426 14.712 76.7066 13.8C75.8906 14.808 74.7146 15.408 73.1306 15.408ZM86.7441 3.456V11.688C86.7441 14.088 87.0561 14.496 89.0481 14.496V15H83.5761V14.496C85.5681 14.496 85.8561 14.088 85.8561 11.688V3.888C85.8561 1.488 85.5681 1.104 83.5761 1.104V0.599999H87.5121L92.6001 12.288L97.6641 0.599999H101.576V1.104C99.5601 1.104 99.2721 1.488 99.2721 3.888V11.688C99.2721 14.088 99.5601 14.496 101.576 14.496V15H95.0961V14.496C97.0881 14.496 97.3761 14.088 97.3761 11.688V3.504L92.2401 15.408H91.9281L86.7441 3.456ZM103.381 15V14.496C104.965 14.496 105.277 14.088 105.277 11.688V10.488C105.277 8.088 104.965 7.704 103.381 7.704V7.2L106.981 6.6V11.688C106.981 14.088 107.269 14.496 108.877 14.496V15H103.381ZM106.117 4.248C105.541 4.248 105.061 3.768 105.061 3.168C105.061 2.592 105.541 2.112 106.117 2.112C106.693 2.112 107.173 2.592 107.173 3.168C107.173 3.768 106.693 4.248 106.117 4.248ZM109.792 15V14.496C111.4 14.496 111.688 14.088 111.688 11.688V4.104C111.688 1.704 111.4 1.296 109.792 1.296V0.792L113.392 0.191999V10.392L115.408 8.76C116.2 8.112 115.864 7.488 114.688 7.488V7.008H119.488V7.488C119.488 7.488 117.904 7.584 116.968 8.352L114.928 10.032L118.792 13.92C119.2 14.328 119.896 14.496 120.208 14.496V15H117.544L113.68 11.016L113.392 11.256V11.688C113.392 14.088 113.704 14.496 115.288 14.496V15H109.792ZM120.818 15V14.496C122.402 14.496 122.714 14.088 122.714 11.688V10.488C122.714 8.088 122.402 7.704 120.818 7.704V7.2L124.418 6.6V11.688C124.418 14.088 124.706 14.496 126.314 14.496V15H120.818ZM123.554 4.248C122.978 4.248 122.498 3.768 122.498 3.168C122.498 2.592 122.978 2.112 123.554 2.112C124.13 2.112 124.61 2.592 124.61 3.168C124.61 3.768 124.13 4.248 123.554 4.248Z" fill="white"/>
</svg>
