<svg width="296" height="36" viewBox="0 0 296 36" fill="none" xmlns="http://www.w3.org/2000/svg">
<path d="M7.65406 25.72L2.97406 14.84C2.21406 13.12 1.57406 12.48 0.254062 12.48V11.68H7.33406V12.48C5.53406 12.48 5.29406 12.92 6.09406 14.84L8.77406 21.44L12.8941 11.68H13.6941L17.7341 21.44L20.4941 14.84C21.2141 13.08 21.0941 12.48 19.3341 12.48V11.68H24.9341V12.48C23.5341 12.48 22.8541 13.08 22.0941 14.84L17.4141 25.72H16.6141L12.5341 16.24L8.45406 25.72H7.65406ZM29.6803 15.84H36.3203C36.7603 14.56 36.0803 12.6 33.4403 12.6C31.7203 12.6 30.2403 13.88 29.6803 15.84ZM33.6403 25.68C29.2403 25.68 26.2403 22.36 26.2403 18.32C26.2403 14.08 29.9203 11 33.6403 11C37.2003 11 40.0403 13.88 39.0803 17.32H29.4403C28.9603 21.08 30.5203 24 34.6403 24C35.9603 24 37.8803 23.24 39.0403 22.16L39.7603 23.04C38.3603 24.52 35.9203 25.68 33.6403 25.68ZM50.0753 25.68C46.2753 25.68 43.1153 22.36 43.1153 18.32C43.1153 14.28 46.2753 11 50.0753 11C52.0753 11 53.7553 11.88 54.9553 13.36V6.84C54.9553 2.84 54.4753 2.16 51.7953 2.16V1.32L57.7953 0.319998V19.52C57.7953 23.32 58.4353 23.8 60.5553 23.8V24.56L55.6353 25.56C55.4353 25.16 55.1153 23.88 54.9953 23.24C53.8753 24.64 52.2753 25.68 50.0753 25.68ZM50.9153 24.08C52.7153 24.08 54.2353 22.8 54.9553 20.92V15.76C54.2353 13.88 52.7153 12.6 50.9153 12.6C47.7953 12.6 46.3553 15.12 46.3553 18.32C46.3553 21.52 47.7953 24.08 50.9153 24.08ZM70.5831 25.68C66.7831 25.68 63.6231 22.36 63.6231 18.32C63.6231 14.28 66.7831 11 70.5831 11C72.5831 11 74.2631 11.88 75.4631 13.36V6.84C75.4631 2.84 74.9831 2.16 72.3031 2.16V1.32L78.3031 0.319998V19.52C78.3031 23.32 78.9431 23.8 81.0631 23.8V24.56L76.1431 25.56C75.9431 25.16 75.6231 23.88 75.5031 23.24C74.3831 24.64 72.7831 25.68 70.5831 25.68ZM71.4231 24.08C73.2231 24.08 74.7431 22.8 75.4631 20.92V15.76C74.7431 13.88 73.2231 12.6 71.4231 12.6C68.3031 12.6 66.8631 15.12 66.8631 18.32C66.8631 21.52 68.3031 24.08 71.4231 24.08ZM83.7309 25V24.16C86.3709 24.16 86.8909 23.48 86.8909 19.48V17.48C86.8909 13.48 86.3709 12.84 83.7309 12.84V12L89.7309 11V19.48C89.7309 23.48 90.2109 24.16 92.8909 24.16V25H83.7309ZM88.2909 7.08C87.3309 7.08 86.5309 6.28 86.5309 5.28C86.5309 4.32 87.3309 3.52 88.2909 3.52C89.2509 3.52 90.0509 4.32 90.0509 5.28C90.0509 6.28 89.2509 7.08 88.2909 7.08ZM95.1763 25V24.16C97.8163 24.16 98.3363 23.48 98.3363 19.48V17.48C98.3363 13.48 97.8163 12.84 95.1763 12.84V12L100.496 11C100.696 11.4 101.056 13.04 101.176 13.88C102.256 12.52 104.096 11 106.736 11C110.336 11 111.936 13.56 111.936 16.96V19.48C111.936 23.48 112.416 24.16 115.096 24.16V25H105.936V24.16C108.536 24.16 109.096 23.48 109.096 19.48V17.16C109.096 14.56 108.176 12.88 105.776 12.88C103.576 12.88 101.176 14.68 101.176 16.88V19.48C101.176 23.6 101.496 24.16 103.976 24.16V25H95.1763ZM123.484 20.56C125.444 20.56 126.364 18.76 126.364 16.44C126.364 14.08 125.444 12.28 123.484 12.28C121.524 12.28 120.564 14.08 120.564 16.44C120.564 18.76 121.524 20.56 123.484 20.56ZM123.604 35.68C116.844 35.68 114.204 30.72 119.124 28.16L119.844 28.6C116.524 32.32 120.444 34.12 123.604 34.12C126.084 34.12 128.564 32.92 128.564 31.04C128.564 29.16 126.564 28.56 123.204 28.24C119.924 27.92 117.524 26.92 117.524 24.52C117.524 23.08 118.804 21.96 120.884 21.32C118.884 20.36 117.524 18.6 117.524 16.44C117.524 13.44 120.204 11 123.484 11C125.084 11 126.524 11.56 127.604 12.52C128.324 11.64 129.764 11 130.604 11C133.364 11 133.524 14.28 131.924 14.36C130.164 14.48 131.164 12.56 129.524 12.56C129.204 12.56 128.724 12.76 128.284 13.2C129.004 14.08 129.444 15.24 129.444 16.44C129.444 19.4 126.844 21.52 124.244 21.88C122.484 22.08 119.764 22.48 119.764 23.56C119.764 24.64 122.084 24.96 123.404 25.08C128.924 25.52 130.684 27.88 130.684 30.32C130.684 33.64 127.524 35.68 123.604 35.68ZM143.614 25V24.16C146.254 24.16 146.774 23.48 146.774 19.48V17.48C146.774 13.48 146.254 12.84 143.614 12.84V12L149.614 11V19.48C149.614 23.48 150.094 24.16 152.774 24.16V25H143.614ZM148.174 7.08C147.214 7.08 146.414 6.28 146.414 5.28C146.414 4.32 147.214 3.52 148.174 3.52C149.134 3.52 149.934 4.32 149.934 5.28C149.934 6.28 149.134 7.08 148.174 7.08ZM155.059 25V24.16C157.699 24.16 158.219 23.48 158.219 19.48V17.48C158.219 13.48 157.699 12.84 155.059 12.84V12L160.379 11C160.579 11.4 160.939 13.04 161.059 13.88C162.139 12.52 163.979 11 166.619 11C170.219 11 171.819 13.56 171.819 16.96V19.48C171.819 23.48 172.299 24.16 174.979 24.16V25H165.819V24.16C168.419 24.16 168.979 23.48 168.979 19.48V17.16C168.979 14.56 168.059 12.88 165.659 12.88C163.459 12.88 161.059 14.68 161.059 16.88V19.48C161.059 23.6 161.379 24.16 163.859 24.16V25H155.059ZM183.167 25.72L178.287 14.84C177.527 13.12 176.887 12.48 175.567 12.48V11.68H182.647V12.48C180.847 12.48 180.567 12.92 181.407 14.84L184.287 21.44L187.247 14.84C188.007 13.12 187.847 12.48 186.087 12.48V11.68H191.687V12.48C190.287 12.48 189.647 13.08 188.847 14.84L183.967 25.72H183.167ZM192.911 25V24.16C195.551 24.16 196.071 23.48 196.071 19.48V17.48C196.071 13.48 195.551 12.84 192.911 12.84V12L198.911 11V19.48C198.911 23.48 199.391 24.16 202.071 24.16V25H192.911ZM197.471 7.08C196.511 7.08 195.711 6.28 195.711 5.28C195.711 4.32 196.511 3.52 197.471 3.52C198.431 3.52 199.231 4.32 199.231 5.28C199.231 6.28 198.431 7.08 197.471 7.08ZM209.756 25.56C207.556 25.56 206.036 24.16 206.036 21.08V13.08H203.956V12.12C206.356 11.6 207.236 9.88 207.516 7.28H208.876V11.68H212.356V13.08H208.876V21.08C208.876 22.96 209.396 23.96 210.676 23.96C211.396 23.96 212.356 23.48 213.276 22.6L213.956 23.28C212.836 24.64 211.076 25.56 209.756 25.56ZM220.153 25.52C218.193 25.52 216.553 24.28 216.553 22.16C216.553 18.76 220.513 17.28 225.073 16.48C225.073 13.48 224.673 12.28 222.393 12.28C221.473 12.28 220.113 12.92 220.113 14.2C220.113 15 219.513 15.6 218.753 15.6C217.953 15.6 217.353 15 217.353 14.2C217.353 12.28 219.873 11 222.433 11C226.313 11 227.913 12.64 227.913 16.44V22.48C227.913 23.48 228.233 24.04 228.833 24.04C229.233 24.04 229.673 23.72 229.953 23.44L230.513 24.2C229.753 25 228.753 25.44 227.873 25.44C226.313 25.44 225.353 24.56 225.153 23.12C223.193 24.88 221.753 25.52 220.153 25.52ZM221.433 23.72C222.273 23.72 223.233 23.44 225.073 21.8V17.72C221.273 18.6 219.553 19.92 219.553 21.68C219.553 22.96 220.433 23.72 221.433 23.72ZM238.076 25.56C235.876 25.56 234.356 24.16 234.356 21.08V13.08H232.276V12.12C234.676 11.6 235.556 9.88 235.836 7.28H237.196V11.68H240.676V13.08H237.196V21.08C237.196 22.96 237.716 23.96 238.996 23.96C239.716 23.96 240.676 23.48 241.596 22.6L242.276 23.28C241.156 24.64 239.396 25.56 238.076 25.56ZM244.473 25V24.16C247.113 24.16 247.633 23.48 247.633 19.48V17.48C247.633 13.48 247.113 12.84 244.473 12.84V12L250.473 11V19.48C250.473 23.48 250.953 24.16 253.633 24.16V25H244.473ZM249.033 7.08C248.073 7.08 247.273 6.28 247.273 5.28C247.273 4.32 248.073 3.52 249.033 3.52C249.993 3.52 250.793 4.32 250.793 5.28C250.793 6.28 249.993 7.08 249.033 7.08ZM264.398 25.68C259.958 25.68 256.318 22.36 256.318 18.32C256.318 14.28 259.958 11 264.398 11C268.838 11 272.478 14.28 272.478 18.32C272.478 22.36 268.838 25.68 264.398 25.68ZM264.398 24.12C267.718 24.12 269.238 21.52 269.238 18.32C269.238 15.12 267.718 12.52 264.398 12.52C261.118 12.52 259.558 15.12 259.558 18.32C259.558 21.52 261.118 24.12 264.398 24.12ZM275.918 25V24.16C278.558 24.16 279.078 23.48 279.078 19.48V17.48C279.078 13.48 278.558 12.84 275.918 12.84V12L281.238 11C281.438 11.4 281.798 13.04 281.918 13.88C282.998 12.52 284.838 11 287.478 11C291.078 11 292.678 13.56 292.678 16.96V19.48C292.678 23.48 293.158 24.16 295.838 24.16V25H286.678V24.16C289.278 24.16 289.838 23.48 289.838 19.48V17.16C289.838 14.56 288.918 12.88 286.518 12.88C284.318 12.88 281.918 14.68 281.918 16.88V19.48C281.918 23.6 282.238 24.16 284.718 24.16V25H275.918Z" fill="white"/>
</svg>
