<svg width="223" height="58" viewBox="0 0 223 58" fill="none" xmlns="http://www.w3.org/2000/svg">
<path d="M20.192 41.088C9.376 41.088 0.544 31.936 0.544 20.8C0.544 9.664 9.376 0.511997 20.192 0.511997C24.672 0.511997 28.832 2.496 32.096 5.952C32.928 5.312 33.952 3.904 34.272 2.304H35.552V16.384H34.272C32.544 8.064 27.552 3.008 20.384 3.008C10.144 3.008 6.432 12.864 6.432 20.8C6.432 28.736 9.76 38.336 21.6 38.336C27.168 38.336 32.16 35.328 32.16 29.568C32.16 26.816 30.56 25.408 26.144 25.408V24.128H42.912V25.408C37.6 25.408 36.832 26.496 36.832 32.896V37.76C29.728 37.76 26.848 41.088 20.192 41.088ZM45.4945 40V38.656C49.7185 38.656 50.5505 37.568 50.5505 31.168V27.968C50.5505 21.568 49.7185 20.544 45.4945 20.544V19.2L54.0065 17.6C54.3265 18.24 54.9025 20.864 55.0945 22.208C56.3745 19.648 59.2545 17.6 61.8145 17.6C65.3345 17.6 66.8705 19.968 66.8705 21.568C66.8705 22.976 66.2945 24.576 64.3105 24.576C63.0945 24.576 62.0705 23.488 62.0705 22.272C62.0705 20.928 61.3025 20.16 60.0225 20.16C58.5505 20.16 55.0945 22.528 55.0945 27.648V31.168C55.0945 37.568 55.8625 38.656 60.1505 38.656V40H45.4945ZM75.701 25.344H86.325C87.029 23.296 85.941 20.16 81.717 20.16C78.965 20.16 76.597 22.208 75.701 25.344ZM82.037 41.088C74.997 41.088 70.197 35.776 70.197 29.312C70.197 22.528 76.085 17.6 82.037 17.6C87.733 17.6 92.277 22.208 90.741 27.712H75.317C74.549 33.728 77.045 38.4 83.637 38.4C85.749 38.4 88.821 37.184 90.677 35.456L91.829 36.864C89.589 39.232 85.685 41.088 82.037 41.088ZM102.701 25.344H113.325C114.029 23.296 112.941 20.16 108.717 20.16C105.965 20.16 103.597 22.208 102.701 25.344ZM109.037 41.088C101.997 41.088 97.197 35.776 97.197 29.312C97.197 22.528 103.085 17.6 109.037 17.6C114.733 17.6 119.277 22.208 117.741 27.712H102.317C101.549 33.728 104.045 38.4 110.637 38.4C112.749 38.4 115.821 37.184 117.677 35.456L118.829 36.864C116.589 39.232 112.685 41.088 109.037 41.088ZM132.197 40.896C128.677 40.896 126.245 38.656 126.245 33.728V20.928H122.917V19.392C126.757 18.56 128.165 15.808 128.613 11.648H130.789V18.688H136.357V20.928H130.789V33.728C130.789 36.736 131.621 38.336 133.669 38.336C134.821 38.336 136.357 37.568 137.829 36.16L138.917 37.248C137.125 39.424 134.309 40.896 132.197 40.896ZM142.432 40V38.656C146.656 38.656 147.488 37.568 147.488 31.168V27.968C147.488 21.568 146.656 20.544 142.432 20.544V19.2L152.032 17.6V31.168C152.032 37.568 152.8 38.656 157.088 38.656V40H142.432ZM149.728 11.328C148.192 11.328 146.912 10.048 146.912 8.448C146.912 6.912 148.192 5.632 149.728 5.632C151.264 5.632 152.544 6.912 152.544 8.448C152.544 10.048 151.264 11.328 149.728 11.328ZM160.745 40V38.656C164.969 38.656 165.801 37.568 165.801 31.168V27.968C165.801 21.568 164.969 20.544 160.745 20.544V19.2L169.257 17.6C169.577 18.24 170.153 20.864 170.345 22.208C172.073 20.032 175.017 17.6 179.241 17.6C185.001 17.6 187.561 21.696 187.561 27.136V31.168C187.561 37.568 188.329 38.656 192.617 38.656V40H177.961V38.656C182.121 38.656 183.017 37.568 183.017 31.168V27.456C183.017 23.296 181.545 20.608 177.705 20.608C174.185 20.608 170.345 23.488 170.345 27.008V31.168C170.345 37.76 170.857 38.656 174.825 38.656V40H160.745ZM206.037 32.896C209.173 32.896 210.645 30.016 210.645 26.304C210.645 22.528 209.173 19.648 206.037 19.648C202.901 19.648 201.365 22.528 201.365 26.304C201.365 30.016 202.901 32.896 206.037 32.896ZM206.229 57.088C195.413 57.088 191.188 49.152 199.061 45.056L200.213 45.76C194.901 51.712 201.173 54.592 206.229 54.592C210.197 54.592 214.165 52.672 214.165 49.664C214.165 46.656 210.965 45.696 205.589 45.184C200.341 44.672 196.501 43.072 196.501 39.232C196.501 36.928 198.549 35.136 201.877 34.112C198.677 32.576 196.501 29.76 196.501 26.304C196.501 21.504 200.789 17.6 206.037 17.6C208.597 17.6 210.901 18.496 212.628 20.032C213.781 18.624 216.085 17.6 217.429 17.6C221.845 17.6 222.101 22.848 219.541 22.976C216.725 23.168 218.325 20.096 215.701 20.096C215.189 20.096 214.421 20.416 213.717 21.12C214.869 22.528 215.573 24.384 215.573 26.304C215.573 31.04 211.413 34.432 207.253 35.008C204.437 35.328 200.085 35.968 200.085 37.696C200.085 39.424 203.797 39.936 205.909 40.128C214.741 40.832 217.557 44.608 217.557 48.512C217.557 53.824 212.501 57.088 206.229 57.088Z" fill="url(#paint0_linear_194_535)"/>
<defs>
<linearGradient id="paint0_linear_194_535" x1="108.5" y1="-14" x2="108.5" y2="57" gradientUnits="userSpaceOnUse">
<stop stop-color="#606060"/>
<stop offset="0.6" stop-color="#C6C6C6"/>
</linearGradient>
</defs>
</svg>
