<svg width="139" height="105" viewBox="0 0 139 105" fill="none" xmlns="http://www.w3.org/2000/svg">
<path d="M27.9165 99.3346C32.5375 96.9851 34.991 88.3604 35.5257 78.5036C35.7136 74.531 35.9269 71.1378 36.2084 68.3023C34.4881 74.2387 31.9302 80.1163 27.8654 82.183C23.929 84.1845 19.6728 83.333 17.4321 78.9259C11.6453 67.5446 20.681 48.1422 30.8643 42.9646C34.2017 41.2677 37.1482 42.0851 38.2577 44.2672C40.8682 49.4017 35.5342 57.4447 31.3411 59.5766C31.0844 59.7072 30.9125 59.6868 30.8472 59.5585C30.782 59.4301 30.9096 59.2575 31.059 59.1277C34.1977 56.6165 38.5056 49.2029 36.1343 44.5391C35.2423 42.7848 33.908 42.2786 31.5119 43.4969C22.655 48.0001 15.5491 67.0675 21.14 78.0638C22.5541 80.8449 25.0538 82.2664 28.3056 80.613C32.456 78.5028 34.9813 70.9724 36.6929 63.7481C36.9011 62.7807 37.2594 61.7908 37.5117 61.0163C38.0796 59.2737 38.7156 58.0887 39.2719 57.8059C39.4858 57.6971 39.6794 57.7602 39.7664 57.9314C39.984 58.3592 39.0637 58.7733 38.4719 60.1512C37.0766 63.3376 37.3251 71.5577 37.7223 79.5407C38.2348 88.7035 36.8799 97.9004 30.5046 101.142C26.0976 103.383 21.7015 100.879 20.0917 97.7129C19.7653 97.0711 19.6761 96.5779 19.9329 96.4474C20.104 96.3604 20.3194 96.4663 20.4934 96.8086C21.9075 99.5897 24.5363 101.053 27.9165 99.3346ZM44.553 67.6135C44.215 68.4315 43.9967 67.8963 44.144 67.4445C44.5864 66.1965 45.176 64.4966 45.4907 63.4212C45.0817 63.2522 44.7576 62.9324 44.5183 62.4617C43.5176 60.4935 44.6112 57.1374 45.5098 56.6805C45.9376 56.463 46.4105 56.5456 46.6498 57.0163C47.4112 58.5138 46.7635 61.1586 46.3233 62.7286C47.5286 63.1928 49.0906 62.4524 49.6345 63.5221C50.3959 65.0196 47.978 69.3722 49.1093 71.5971C49.5661 72.4957 50.2543 72.6842 51.0245 72.2926C53.5917 70.9873 56.0401 64.7884 57.6219 60.5918C57.9598 59.7738 58.1781 60.309 58.0309 60.7608C56.386 65.151 53.6881 72.5538 50.693 74.0766C49.1527 74.8598 47.4761 74.5276 46.7581 73.1156C45.3441 70.3345 48.4466 65.6338 47.7504 64.2646C47.5329 63.8368 46.717 63.8208 45.9643 63.6112C45.5857 64.773 45.0382 66.3437 44.553 67.6135ZM66.9179 51.6113C67.8316 53.4083 67.7249 56.6935 66.8002 59.6406C66.7799 59.8125 66.8241 60.0054 66.8894 60.1338C67.2375 60.8184 68.3985 61.0896 69.8533 60.3499C72.2493 59.1317 75.1031 55.7422 76.9372 50.771C77.2752 49.953 77.4934 50.4882 77.3462 50.94C75.5541 55.7821 72.34 59.8395 69.73 61.1665C68.1041 61.9932 66.8603 62.1948 65.956 61.793C65.13 63.4515 64.0233 64.8757 62.6969 65.5501C60.9427 66.4421 59.1587 66.1106 58.1145 64.0569C56.3741 60.6339 59.452 52.2841 63.0461 50.4567C64.8004 49.5647 66.0695 49.9426 66.9179 51.6113ZM66.0179 51.8535C65.5611 50.9549 64.8722 50.659 64.0592 51.0724C61.278 52.4864 59.4199 60.2699 60.9427 63.265C61.4431 64.2491 62.1748 64.5233 63.0733 64.0664C63.8863 63.6531 64.6949 62.5957 65.2867 61.2179C65.1786 61.1113 65.0916 60.9401 65.0046 60.769C64.4172 59.6137 65.1135 57.8058 65.9692 57.3708C66.1404 57.2837 66.2905 57.2613 66.4623 57.2816C66.7706 55.2401 66.7141 53.2227 66.0179 51.8535ZM86.2222 41.7961C87.1359 43.5932 87.0292 46.8783 86.1045 49.8255C86.0842 49.9974 86.1284 50.1903 86.1937 50.3186C86.5418 51.0032 87.7028 51.2745 89.1576 50.5348C91.5536 49.3165 94.4074 45.927 96.2415 40.9559C96.5795 40.1379 96.7977 40.6731 96.6505 41.1249C94.8584 45.9669 91.6443 50.0243 89.0343 51.3514C87.4084 52.1781 86.1647 52.3796 85.2603 51.9778C84.4343 53.6363 83.3276 55.0606 82.0012 55.735C80.247 56.6269 78.463 56.2955 77.4188 54.2417C75.6784 50.8187 78.7563 42.4689 82.3504 40.6415C84.1047 39.7496 85.3738 40.1274 86.2222 41.7961ZM85.3222 42.0383C84.8654 41.1398 84.1765 40.8439 83.3635 41.2572C80.5823 42.6713 78.7242 50.4548 80.247 53.4499C80.7474 54.434 81.4791 54.7081 82.3776 54.2513C83.1906 53.8379 83.9992 52.7806 84.591 51.4027C84.483 51.2961 84.3959 51.125 84.3089 50.9538C83.7215 49.7986 84.4178 47.9907 85.2735 47.5556C85.4447 47.4686 85.5948 47.4461 85.7666 47.4664C86.0749 45.425 86.0184 43.4075 85.3222 42.0383ZM111.596 34.3873L111.833 34.4287C112.85 32.404 114.664 27.712 116.932 26.559C117.83 26.1021 118.691 26.4183 119.061 27.1457C119.953 28.9 117.449 33.1887 118.536 35.3281C118.863 35.9699 119.486 36.1374 120.385 35.6806C122.738 34.4841 125.899 28.9458 127.312 25.1582C127.65 24.3402 127.868 24.8754 127.721 25.3272C126.203 29.3302 122.811 35.6857 119.773 37.2303C118.404 37.9265 116.942 37.7002 116.355 36.5449C114.919 33.721 118.15 28.9551 117.454 27.5859C117.345 27.3719 117.151 27.3088 116.895 27.4394C115.312 28.2443 113.111 33.0247 111.758 36.0821C111.271 37.1373 111.19 37.8248 110.719 38.0641C110.292 38.2816 109.453 38.0082 109.17 37.452C108.365 35.8688 111.834 28.1819 110.942 26.4276C110.811 26.1709 110.553 26.0867 110.296 26.2173C108.456 27.1527 104.03 36.1341 102.66 43.0771C102.475 44.1946 102.435 44.753 101.836 45.0576C101.195 45.3839 100.313 45.2396 99.9654 44.555C98.7906 42.2445 102.444 33.3327 101.879 32.2202C101.77 32.0063 101.555 31.9004 101.255 32.0527C100.442 32.466 99.0621 34.7293 96.6579 41.1211C96.3199 41.9391 96.1016 41.4039 96.2489 40.9521C98.6741 34.4958 100.157 31.5878 101.355 30.9787C102.083 30.6088 102.943 30.8177 103.334 31.5879C104.117 33.1282 102.919 36.8071 102.487 39.6651L102.681 39.7282C103.856 35.6845 107.68 26.6857 110.205 25.4021C111.275 24.8583 112.35 25.173 112.829 26.1143C113.786 27.997 111.987 31.8731 111.596 34.3873Z" fill="#7A7A7A"/>
</svg>
