<svg width="109" height="107" viewBox="0 0 109 107" fill="none" xmlns="http://www.w3.org/2000/svg">
<path d="M18.5905 15.1644C15.7607 18.1035 16.8161 20.0525 16.6163 20.2599C16.4831 20.3983 16.2795 20.4021 16.0375 20.1691C15.7954 19.936 13.4107 15.9076 17.1726 12.0002C22.9654 5.98359 39.1778 10.5986 45.5056 16.691C46.7505 17.8895 46.9824 19.3788 45.9503 20.4507C43.52 22.9749 33.5586 23.9785 29.6631 24.4257L29.6311 24.5282C35.0927 24.3228 50.0907 23.9706 54.8625 28.5649C56.2803 29.9298 56.6621 32.1631 54.9309 33.9612C50.9026 38.1451 41.927 37.4327 35.6687 35.0053C37.3196 37.9274 37.6554 41.3157 35.2917 43.7708C30.2979 48.9576 19.8971 48.2721 13.915 42.5126C10.7684 39.4831 9.95106 35.7644 12.0151 33.6205C14.6119 30.9234 20.9201 32.3994 23.0294 34.4302C23.2369 34.6299 23.274 34.7989 23.1409 34.9372C23.041 35.041 22.8707 35.0103 22.6645 34.8784C20.7397 33.6249 15.771 32.9722 13.4073 35.4273C11.9092 36.9833 11.9196 39.3255 14.3401 41.6559C19.7343 46.8494 29.0837 45.7895 33.5115 41.1906C35.0762 39.5654 36.0505 37.2386 34.9157 34.6801C33.0677 33.9004 31.522 32.9452 30.4846 31.9465C29.7585 31.2473 29.5433 30.6404 29.8762 30.2946C30.3756 29.7759 31.5025 30.128 33.1277 31.6927C33.3352 31.8924 33.5094 32.1267 33.7514 32.3598C38.6805 34.5069 48.9688 36.4166 53.9625 31.2298C54.6284 30.5382 54.7474 29.6533 53.8829 28.8211C49.9064 24.9925 34.9647 24.7326 25.5116 25.6926C16.0919 26.618 10.7176 29.6394 10.0606 29.0068C9.74938 28.7072 9.31771 27.4254 10.7493 25.9385C15.3768 21.1321 42.0883 22.6626 45.3509 19.2739C45.817 18.7898 45.9399 18.1085 45.0754 17.2762C39.5083 11.9163 24.1169 9.42438 18.5905 15.1644ZM36.8677 50.3521C35.9841 50.301 36.4182 49.9194 36.8933 49.9104C38.2174 49.9192 40.0166 49.919 41.1358 49.8639C41.1614 49.4221 41.3573 49.011 41.7235 48.6306C43.2549 47.04 46.7841 46.9731 47.5103 47.6722C47.8561 48.0052 47.9329 48.479 47.5667 48.8593C46.4015 50.0696 43.6906 50.3246 42.063 50.4234C42.0195 51.7142 43.2311 52.9473 42.3988 53.8118C41.2336 55.022 36.3289 54.1645 34.5978 55.9625C33.8986 56.6887 33.9461 57.4007 34.5685 57.9999C36.6432 59.9974 43.3022 60.2785 47.7855 60.3972C48.669 60.4484 48.235 60.83 47.7599 60.839C43.073 60.7242 35.1949 60.602 32.7744 58.2716C31.5296 57.0731 31.2938 55.3802 32.3925 54.2391C34.5564 51.9915 40.0143 53.3817 41.0797 52.2752C41.4126 51.9294 41.1602 51.1534 41.1115 50.3735C39.8898 50.3967 38.2264 50.3943 36.8677 50.3521ZM65.6284 60.7186C66.1125 61.1846 66.1574 61.7609 65.7246 62.2104C65.1253 62.8328 63.0611 63.1775 62.4041 62.5449C61.9892 62.1454 61.9417 61.4334 62.4411 60.9148C63.1069 60.2232 65.1097 60.2192 65.6284 60.7186ZM47.8003 60.4115C53.778 60.5698 56.5325 60.8231 57.4662 61.722C58.296 62.521 58.2103 63.3713 57.5778 64.0283C56.0797 65.5843 50.7371 64.9048 48.906 66.8066C48.2735 67.4636 48.3888 68.1743 49.1495 68.9067C50.8093 70.5047 55.3144 71.7772 59.6953 71.8639C60.5789 71.915 60.1448 72.2967 59.6697 72.3057C55.2876 72.1511 49.9718 71.0977 47.5859 68.8006C46.2374 67.5022 45.9389 66.0821 47.1041 64.8718C49.1349 62.7625 55.4994 63.6264 56.5647 62.5199C56.7312 62.347 56.7952 62.1421 56.5531 61.909C56.0345 61.4096 53.7857 60.977 47.7747 60.8533C46.8911 60.8022 47.3252 60.4205 47.8003 60.4115ZM75.5927 87.1697C76.4763 87.2209 76.0422 87.6025 75.5671 87.6115C71.0159 87.4941 65.9371 86.4023 64.0699 84.6045C62.7559 83.3394 62.6559 81.644 63.9209 80.33C64.7865 79.431 66.0299 78.7624 67.176 78.3333C59.0367 78.7592 55.6086 78.7902 54.2601 77.4918C53.2227 76.4931 53.1304 75.2048 54.3955 73.8909C57.5582 70.6059 67.5851 71.2645 71.0775 74.627C71.9766 75.4926 72.0279 76.4082 71.9089 77.293C73.5672 77.024 75.2946 76.8215 77.6675 76.6407C80.6512 76.4484 89.797 75.3924 90.8343 76.3911C91.3876 76.9238 91.4337 77.5679 90.9676 78.052C90.6014 78.4324 90.1968 78.5758 88.7382 78.6374C86.4998 78.7477 81.6452 78.7379 76.5178 78.6654C70.8218 79.045 67.0058 80.1018 65.2746 81.8998C64.3425 82.868 64.4258 83.6812 65.2211 84.4469C66.8463 86.0116 71.619 87.0753 75.5927 87.1697ZM70.6192 75.5183C67.6109 72.6219 58.2512 73.1388 55.721 75.7668C55.1884 76.32 55.1295 76.7964 55.4753 77.1293C56.2706 77.895 60.0765 78.0945 71.2314 77.3738C71.3223 76.795 71.2762 76.1508 70.6192 75.5183ZM75.0474 90.7093C73.9488 91.8504 73.9425 93.3102 75.4639 94.775C77.9536 97.172 83.2053 98.4304 87.3825 98.5209C88.2661 98.5721 87.8321 98.9537 87.357 98.9627C82.9083 98.8773 76.7396 97.6024 73.6276 94.6062C71.6566 92.7085 71.4106 90.4727 73.2083 88.6055C76.3377 85.3551 85.1853 86.4774 87.8824 89.0741C88.9197 90.0729 89.0056 91.0218 88.2399 91.8171C86.5753 93.546 82.5594 93.0111 76.8913 89.4862C76.1499 89.7718 75.5135 90.2252 75.0474 90.7093ZM87.424 89.9654C85.6951 88.3008 80.8353 88.0196 77.497 89.2031C81.3069 91.4053 86.2115 92.2629 87.5099 90.9143C87.7762 90.6377 87.8044 90.3316 87.424 89.9654Z" fill="#737371"/>
</svg>
