<svg width="118" height="41" viewBox="0 0 118 41" fill="none" xmlns="http://www.w3.org/2000/svg">
<path d="M0.432 39V37.656C5.744 37.656 6.512 36.568 6.512 30.168V9.368C6.512 2.968 5.744 1.944 0.432 1.944V0.599998H17.712V1.944C12.4 1.944 11.632 2.968 11.632 9.368V17.432H33.328V9.368C33.328 2.968 32.496 1.944 27.184 1.944V0.599998H44.592V1.944C39.216 1.944 38.448 2.968 38.448 9.368V30.168C38.448 36.568 39.216 37.656 44.592 37.656V39H27.184V37.656C32.496 37.656 33.328 36.568 33.328 30.168V19.8H11.632V30.168C11.632 36.568 12.4 37.656 17.712 37.656V39H0.432ZM62.3125 40.088C55.2085 40.088 49.3845 34.776 49.3845 28.312C49.3845 21.848 55.2085 16.6 62.3125 16.6C69.4165 16.6 75.2405 21.848 75.2405 28.312C75.2405 34.776 69.4165 40.088 62.3125 40.088ZM62.3125 37.592C67.6245 37.592 70.0565 33.432 70.0565 28.312C70.0565 23.192 67.6245 19.032 62.3125 19.032C57.0645 19.032 54.5685 23.192 54.5685 28.312C54.5685 33.432 57.0645 37.592 62.3125 37.592ZM81.3845 40.088V30.744H82.7285C82.7285 33.624 85.1605 37.912 89.7045 37.912C91.8165 37.912 93.3525 36.44 93.3525 34.648C93.3525 33.048 91.9445 31.896 89.7685 30.744L86.1845 28.824C83.1125 27.16 81.9605 24.472 81.9605 22.424C81.9605 18.968 85.1605 16.6 88.4245 16.6C91.7525 16.6 93.0325 18.072 93.8645 18.072C94.1205 18.072 94.2485 17.624 94.2485 16.6H95.5925V24.024H94.2485C94.2485 21.336 92.3285 18.648 89.0645 18.648C86.8885 18.648 85.8005 19.8 85.8005 21.4C85.8005 22.936 86.8245 23.768 89.7045 25.304L92.7765 26.968C95.5925 28.568 97.1925 30.808 97.1925 33.112C97.1925 37.336 93.7365 40.088 89.5765 40.088C86.6965 40.088 84.4565 38.04 83.5605 38.04C82.9845 38.04 82.7285 38.552 82.7285 40.088H81.3845ZM111.135 39.896C107.615 39.896 105.183 37.656 105.183 32.728V19.928H101.855V18.392C105.695 17.56 107.103 14.808 107.551 10.648H109.727V17.688H115.295V19.928H109.727V32.728C109.727 35.736 110.559 37.336 112.607 37.336C113.759 37.336 115.295 36.568 116.767 35.16L117.855 36.248C116.062 38.424 113.247 39.896 111.135 39.896Z" fill="url(#paint0_linear_194_556)"/>
<defs>
<linearGradient id="paint0_linear_194_556" x1="58.5" y1="-15" x2="58.5" y2="56" gradientUnits="userSpaceOnUse">
<stop stop-color="#606060"/>
<stop offset="0.6" stop-color="#C6C6C6"/>
</linearGradient>
</defs>
</svg>
