<svg width="253" height="42" viewBox="0 0 253 42" fill="none" xmlns="http://www.w3.org/2000/svg">
<path d="M11.776 40V38.656C17.088 38.656 17.92 37.568 17.92 31.168V4.096H9.6C3.712 4.096 3.072 5.568 2.176 8.96L1.856 10.24H0.512L1.088 1.6H39.872L40.448 10.24H39.104L38.784 8.96C37.888 5.568 37.248 4.096 31.36 4.096H23.04V31.168C23.04 37.568 23.872 38.656 29.184 38.656V40H11.776ZM40.2445 40V38.656C44.4685 38.656 45.3005 37.568 45.3005 31.168V27.968C45.3005 21.568 44.4685 20.544 40.2445 20.544V19.2L49.8445 17.6V31.168C49.8445 37.568 50.6125 38.656 54.9005 38.656V40H40.2445ZM47.5405 11.328C46.0045 11.328 44.7245 10.048 44.7245 8.448C44.7245 6.912 46.0045 5.632 47.5405 5.632C49.0765 5.632 50.3565 6.912 50.3565 8.448C50.3565 10.048 49.0765 11.328 47.5405 11.328ZM58.557 40V38.656C62.781 38.656 63.613 37.568 63.613 31.168V27.968C63.613 21.568 62.781 20.544 58.557 20.544V19.2L67.069 17.6C67.389 18.24 67.965 20.864 68.157 22.208C69.885 20.032 72.765 17.6 76.477 17.6C80.381 17.6 82.429 19.456 83.325 22.4C84.797 20.288 88.509 17.6 92.285 17.6C97.981 17.6 99.645 21.696 99.645 27.136V31.168C99.645 37.568 100.477 38.656 104.701 38.656V40H91.133V38.656C94.653 38.656 95.101 37.952 95.101 31.168V27.456C95.101 23.296 93.885 20.608 90.557 20.608C88.381 20.608 83.901 23.04 83.901 27.008V31.168C83.901 37.952 84.349 38.656 87.933 38.656V40H75.325V38.656C78.845 38.656 79.357 37.952 79.357 31.168V27.456C79.357 23.296 78.077 20.608 74.749 20.608C72.509 20.608 68.157 23.04 68.157 27.008V31.168C68.157 37.824 68.605 38.656 72.125 38.656V40H58.557ZM114.576 25.344H125.2C125.904 23.296 124.816 20.16 120.592 20.16C117.84 20.16 115.472 22.208 114.576 25.344ZM120.912 41.088C113.872 41.088 109.072 35.776 109.072 29.312C109.072 22.528 114.96 17.6 120.912 17.6C126.608 17.6 131.152 22.208 129.616 27.712H114.192C113.424 33.728 115.92 38.4 122.512 38.4C124.624 38.4 127.696 37.184 129.552 35.456L130.704 36.864C128.464 39.232 124.56 41.088 120.912 41.088ZM144.072 40.896C140.552 40.896 138.12 38.656 138.12 33.728V20.928H134.792V19.392C138.632 18.56 140.04 15.808 140.488 11.648H142.664V18.688H148.232V20.928H142.664V33.728C142.664 36.736 143.496 38.336 145.544 38.336C146.696 38.336 148.232 37.568 149.704 36.16L150.792 37.248C149 39.424 146.184 40.896 144.072 40.896ZM160.707 40.832C157.571 40.832 154.947 38.848 154.947 35.456C154.947 30.016 161.283 27.648 168.579 26.368C168.579 21.568 167.939 19.648 164.291 19.648C162.819 19.648 160.643 20.672 160.643 22.72C160.643 24 159.683 24.96 158.467 24.96C157.187 24.96 156.227 24 156.227 22.72C156.227 19.648 160.259 17.6 164.355 17.6C170.563 17.6 173.123 20.224 173.123 26.304V35.968C173.123 37.568 173.635 38.464 174.595 38.464C175.235 38.464 175.939 37.952 176.387 37.504L177.283 38.72C176.067 40 174.467 40.704 173.059 40.704C170.563 40.704 169.027 39.296 168.707 36.992C165.571 39.808 163.267 40.832 160.707 40.832ZM162.755 37.952C164.099 37.952 165.635 37.504 168.579 34.88V28.352C162.499 29.76 159.747 31.872 159.747 34.688C159.747 36.736 161.155 37.952 162.755 37.952ZM194.569 38.528C199.561 38.528 201.865 34.432 201.865 29.312C201.865 24.192 199.561 20.16 194.569 20.16C191.625 20.16 189.257 22.208 188.105 25.216V33.408C189.257 36.48 191.625 38.528 194.569 38.528ZM183.561 41.088V10.944C183.561 4.544 182.729 3.456 178.505 3.456V2.112L188.105 0.511997V21.376C190.025 19.008 192.713 17.6 195.913 17.6C201.993 17.6 206.985 22.848 206.985 29.312C206.985 35.776 201.993 41.088 195.913 41.088C192.521 41.088 189.577 39.424 187.72 36.8L184.905 41.088H183.561ZM211.341 40V38.656C215.629 38.656 216.397 37.568 216.397 31.168V10.944C216.397 4.544 215.629 3.456 211.341 3.456V2.112L220.941 0.511997V31.168C220.941 37.568 221.773 38.656 225.997 38.656V40H211.341ZM235.826 25.344H246.45C247.154 23.296 246.066 20.16 241.842 20.16C239.09 20.16 236.722 22.208 235.826 25.344ZM242.162 41.088C235.122 41.088 230.322 35.776 230.322 29.312C230.322 22.528 236.21 17.6 242.162 17.6C247.858 17.6 252.402 22.208 250.866 27.712H235.442C234.674 33.728 237.17 38.4 243.762 38.4C245.874 38.4 248.946 37.184 250.802 35.456L251.954 36.864C249.714 39.232 245.81 41.088 242.162 41.088Z" fill="url(#paint0_linear_194_563)"/>
<defs>
<linearGradient id="paint0_linear_194_563" x1="127.5" y1="-14" x2="127.5" y2="57" gradientUnits="userSpaceOnUse">
<stop stop-color="#606060"/>
<stop offset="0.7" stop-color="#C6C6C6"/>
</linearGradient>
</defs>
</svg>
