<svg width="139" height="16" viewBox="0 0 139 16" fill="none" xmlns="http://www.w3.org/2000/svg">
<path d="M1.62359 15V14.424L5.41559 9.648C7.26359 7.32 8.17559 5.52 8.17559 4.2C8.17559 2.496 7.40759 1.224 5.55959 1.224C3.71159 1.224 2.36759 2.832 3.71159 4.824L3.03959 5.568C0.0155937 3.816 1.16759 0.191999 5.58359 0.191999C8.43959 0.191999 10.0236 2.136 10.0236 4.176C10.0236 6.096 8.82359 7.584 6.90359 9.768L3.73559 13.392H7.33559C9.44759 13.392 9.78359 13.008 10.1676 11.568H10.6956L10.0956 15H1.62359ZM23.3704 7.8C23.3704 11.976 21.1384 15.408 18.4744 15.408C15.7864 15.408 13.5784 11.976 13.5784 7.8C13.5784 3.624 15.7864 0.191999 18.4744 0.191999C21.1384 0.191999 23.3704 3.624 23.3704 7.8ZM18.4744 1.128C16.2664 1.128 15.5224 4.824 15.5224 7.8C15.5224 10.776 16.2664 14.448 18.4744 14.448C20.6584 14.448 21.4024 10.776 21.4024 7.8C21.4024 4.824 20.6584 1.128 18.4744 1.128ZM26.3033 15V14.424L30.0953 9.648C31.9433 7.32 32.8553 5.52 32.8553 4.2C32.8553 2.496 32.0873 1.224 30.2393 1.224C28.3913 1.224 27.0473 2.832 28.3913 4.824L27.7193 5.568C24.6953 3.816 25.8473 0.191999 30.2633 0.191999C33.1193 0.191999 34.7033 2.136 34.7033 4.176C34.7033 6.096 33.5033 7.584 31.5833 9.768L28.4153 13.392H32.0153C34.1273 13.392 34.4633 13.008 34.8473 11.568H35.3753L34.7753 15H26.3033ZM44.7381 0V9.912H45.0021C47.2101 9.912 47.4741 9.36 47.7861 8.088L47.9061 7.608H48.4101L48.2181 10.8C48.2181 10.8 46.6581 10.8 44.7381 10.8V11.688C44.7381 14.088 45.0501 14.496 47.0421 14.496V15H40.7541V14.496C42.7461 14.496 43.0581 14.088 43.0581 11.688V10.8H37.6101V10.344L44.3061 0H44.7381ZM43.0581 9.912V3.528L38.9061 9.912H43.0581ZM53.451 15.192C52.731 15.192 52.155 14.616 52.155 13.896C52.155 13.176 52.731 12.6 53.451 12.6C54.171 12.6 54.747 13.176 54.747 13.896C54.747 14.616 54.171 15.192 53.451 15.192ZM62.4625 11.688C62.4625 14.088 62.7745 14.496 64.3825 14.496V15H58.8625V14.496C60.4705 14.496 60.7825 14.088 60.7825 11.688V4.104C60.7825 1.704 60.2065 1.464 58.4785 1.488V1.008L62.4625 0.191999V11.688ZM71.275 11.688C71.275 14.088 71.587 14.496 73.195 14.496V15H67.675V14.496C69.283 14.496 69.595 14.088 69.595 11.688V4.104C69.595 1.704 69.019 1.464 67.291 1.488V1.008L71.275 0.191999V11.688ZM78.5995 15.192C77.8795 15.192 77.3035 14.616 77.3035 13.896C77.3035 13.176 77.8795 12.6 78.5995 12.6C79.3195 12.6 79.8955 13.176 79.8955 13.896C79.8955 14.616 79.3195 15.192 78.5995 15.192ZM83.8189 15V14.424L87.6109 9.648C89.4589 7.32 90.3709 5.52 90.3709 4.2C90.3709 2.496 89.6029 1.224 87.7549 1.224C85.9069 1.224 84.5629 2.832 85.9069 4.824L85.2349 5.568C82.2109 3.816 83.3629 0.191999 87.7789 0.191999C90.6349 0.191999 92.2189 2.136 92.2189 4.176C92.2189 6.096 91.0189 7.584 89.0989 9.768L85.9309 13.392H89.5309C91.6429 13.392 91.9789 13.008 92.3629 11.568H92.8909L92.2909 15H83.8189ZM95.7017 15V14.424L99.4937 9.648C101.342 7.32 102.254 5.52 102.254 4.2C102.254 2.496 101.486 1.224 99.6377 1.224C97.7897 1.224 96.4457 2.832 97.7897 4.824L97.1177 5.568C94.0937 3.816 95.2457 0.191999 99.6617 0.191999C102.518 0.191999 104.102 2.136 104.102 4.176C104.102 6.096 102.902 7.584 100.982 9.768L97.8137 13.392H101.414C103.526 13.392 103.862 13.008 104.246 11.568H104.774L104.174 15H95.7017ZM109.889 15.192C109.169 15.192 108.593 14.616 108.593 13.896C108.593 13.176 109.169 12.6 109.889 12.6C110.609 12.6 111.185 13.176 111.185 13.896C111.185 14.616 110.609 15.192 109.889 15.192ZM114.82 15.408V11.904H115.324C115.324 12.984 116.236 14.592 117.94 14.592C118.732 14.592 119.308 14.04 119.308 13.368C119.308 12.768 118.78 12.336 117.964 11.904L116.62 11.184C115.468 10.56 115.036 9.552 115.036 8.784C115.036 7.488 116.236 6.6 117.46 6.6C118.708 6.6 119.188 7.152 119.5 7.152C119.596 7.152 119.644 6.984 119.644 6.6H120.148V9.384H119.644C119.644 8.376 118.924 7.368 117.7 7.368C116.884 7.368 116.476 7.8 116.476 8.4C116.476 8.976 116.86 9.288 117.94 9.864L119.092 10.488C120.148 11.088 120.748 11.928 120.748 12.792C120.748 14.376 119.452 15.408 117.892 15.408C116.812 15.408 115.972 14.64 115.636 14.64C115.42 14.64 115.324 14.832 115.324 15.408H114.82ZM125.136 15.312C123.96 15.312 122.976 14.568 122.976 13.296C122.976 11.256 125.352 10.368 128.088 9.888C128.088 8.088 127.848 7.368 126.48 7.368C125.928 7.368 125.112 7.752 125.112 8.52C125.112 9 124.752 9.36 124.296 9.36C123.816 9.36 123.456 9 123.456 8.52C123.456 7.368 124.968 6.6 126.504 6.6C128.832 6.6 129.792 7.584 129.792 9.864V13.488C129.792 14.088 129.984 14.424 130.344 14.424C130.584 14.424 130.848 14.232 131.016 14.064L131.352 14.52C130.896 15 130.296 15.264 129.768 15.264C128.832 15.264 128.256 14.736 128.136 13.872C126.96 14.928 126.096 15.312 125.136 15.312ZM125.904 14.232C126.408 14.232 126.984 14.064 128.088 13.08V10.632C125.808 11.16 124.776 11.952 124.776 13.008C124.776 13.776 125.304 14.232 125.904 14.232ZM135.89 15.336C134.57 15.336 133.658 14.496 133.658 12.648V7.848H132.41V7.272C133.85 6.96 134.378 5.928 134.546 4.368H135.362V7.008H137.45V7.848H135.362V12.648C135.362 13.776 135.674 14.376 136.442 14.376C136.874 14.376 137.45 14.088 138.002 13.56L138.41 13.968C137.738 14.784 136.682 15.336 135.89 15.336Z" fill="white"/>
</svg>
