<svg width="314" height="127" viewBox="0 0 314 127" fill="none" xmlns="http://www.w3.org/2000/svg">
<path d="M67.089 1.04C55.469 1.04 36.289 14.41 36.289 26.31C36.289 32.47 39.439 33.45 39.439 33.87C39.439 34.15 39.229 34.36 38.739 34.36C38.249 34.36 31.459 32.54 31.459 24.35C31.459 11.89 53.789 -0.0100021 66.949 -0.0100021C71.009 -0.0100021 72.899 2.09 72.899 5.03C72.899 15.39 43.149 39.05 43.149 51.58C43.149 54.31 44.829 55.57 46.859 55.57C58.549 55.57 73.319 18.4 85.569 18.4C86.689 18.4 87.389 19.17 87.389 20.08C87.389 25.05 74.369 38.7 74.369 48.43C74.369 51.09 75.699 52.42 78.219 52.42C87.879 52.42 104.749 26.66 104.749 11.96C104.749 5.38 102.929 4.61 102.929 4.33C102.929 4.12 103.069 3.98 103.349 3.98C104.119 3.98 109.089 7.06 109.089 14.83C109.089 28.62 88.859 54.1 76.959 54.1C73.529 54.1 69.539 52 69.539 47.17C69.539 37.72 86.549 24.14 86.549 20.01C86.549 19.8 86.409 19.66 86.129 19.66C79.829 19.66 57.849 56.9 46.859 56.9C43.009 56.9 38.949 54.03 38.949 49.55C38.949 33.59 71.149 14.06 71.149 3.98C71.149 2.09 70.099 1.04 67.089 1.04ZM109.801 47.87C109.801 50.18 111.271 51.72 114.351 51.72C119.391 51.72 126.181 47.73 130.661 43.6C131.641 42.76 131.571 43.6 131.081 44.09C126.321 48.5 118.551 53.4 112.251 53.4C108.261 53.4 105.741 51.3 105.741 47.52C105.741 40.94 116.171 33.17 121.631 33.17C123.731 33.17 124.781 34.08 124.781 35.69C124.781 39.19 120.021 42.69 110.501 44.72C110.011 45.77 109.801 46.89 109.801 47.87ZM122.051 34.57C118.551 34.57 113.161 39.19 110.851 43.81C117.081 42.27 123.101 38.21 123.101 35.48C123.101 34.92 122.821 34.57 122.051 34.57ZM162.848 43.6C163.828 42.76 163.758 43.6 163.268 44.09C158.368 48.57 151.928 52.56 148.148 52.56C145.488 52.56 143.668 50.88 143.668 48.22C143.668 46.4 144.298 44.44 145.068 42.83C136.948 51.51 133.378 55.01 130.648 55.01C128.548 55.01 127.148 53.75 127.148 51.09C127.148 44.44 138.348 34.99 145.418 34.99C147.238 34.99 148.218 35.9 148.988 36.95C150.458 34.99 152.068 33.03 154.378 30.44C157.318 27.22 165.858 16.86 167.958 16.86C169.078 16.86 169.778 17.49 169.778 18.47C169.778 19.24 169.498 19.8 168.028 21.34C165.788 23.72 160.678 28.62 155.218 33.73C149.618 39.89 146.678 44.86 146.678 48.5C146.678 50.46 147.588 51.23 149.198 51.23C152.488 51.23 158.578 47.52 162.848 43.6ZM145.838 36.39C139.748 36.39 130.438 46.4 130.438 51.72C130.438 52.84 130.858 53.4 131.558 53.4C133.168 53.4 137.368 49.76 148.358 37.72C147.868 37.02 147.168 36.39 145.838 36.39ZM195.046 43.6C196.026 42.76 195.956 43.6 195.466 44.09C190.566 48.57 184.126 52.56 180.346 52.56C177.686 52.56 175.866 50.88 175.866 48.22C175.866 46.4 176.496 44.44 177.266 42.83C169.146 51.51 165.576 55.01 162.846 55.01C160.746 55.01 159.346 53.75 159.346 51.09C159.346 44.44 170.546 34.99 177.616 34.99C179.436 34.99 180.416 35.9 181.186 36.95C182.656 34.99 184.266 33.03 186.576 30.44C189.516 27.22 198.056 16.86 200.156 16.86C201.276 16.86 201.976 17.49 201.976 18.47C201.976 19.24 201.696 19.8 200.226 21.34C197.986 23.72 192.876 28.62 187.416 33.73C181.816 39.89 178.876 44.86 178.876 48.5C178.876 50.46 179.786 51.23 181.396 51.23C184.686 51.23 190.776 47.52 195.046 43.6ZM178.036 36.39C171.946 36.39 162.636 46.4 162.636 51.72C162.636 52.84 163.056 53.4 163.756 53.4C165.366 53.4 169.566 49.76 180.556 37.72C180.066 37.02 179.366 36.39 178.036 36.39ZM214.083 25.89C215.063 25.89 215.693 26.45 215.693 27.36C215.693 28.62 213.873 31.07 212.543 31.07C211.703 31.07 210.933 30.37 210.933 29.32C210.933 27.92 213.033 25.89 214.083 25.89ZM195.043 43.6C201.483 37.72 204.633 35.2 206.523 35.2C208.203 35.2 208.973 36.18 208.973 37.51C208.973 40.66 202.673 45.35 202.673 49.2C202.673 50.53 203.513 51.16 205.053 51.16C208.413 51.16 214.433 47.94 219.123 43.6C220.103 42.76 220.033 43.6 219.543 44.09C214.783 48.36 208.133 52.63 203.303 52.63C200.573 52.63 198.823 51.44 198.823 48.99C198.823 44.72 206.383 39.19 206.383 36.95C206.383 36.6 206.243 36.32 205.753 36.32C204.703 36.32 201.903 38.14 195.463 44.09C194.483 44.93 194.553 44.09 195.043 43.6ZM219.105 43.6C227.925 35.55 231.985 31.91 234.295 31.91C235.625 31.91 236.745 32.96 236.745 34.5C236.745 37.65 227.575 45.7 225.755 49.55L225.895 49.69C229.255 46.19 239.545 36.32 243.605 36.32C245.285 36.32 246.545 37.37 246.545 38.77C246.545 41.64 244.795 44.3 244.795 47.59C244.795 49.06 245.425 50.11 247.315 50.11C250.885 50.11 256.415 46.54 259.635 43.6C260.615 42.76 260.545 43.6 260.055 44.09C256.625 47.24 250.325 51.58 246.195 51.58C243.255 51.58 240.945 50.04 240.945 47.1C240.945 43.88 243.605 40.66 243.605 38.7C243.605 38.14 243.255 37.86 242.625 37.86C239.195 37.86 229.815 47.1 225.265 51.86C224.495 52.56 224.005 53.12 223.235 53.12C222.325 53.12 221.205 52.28 221.205 51.09C221.205 46.89 234.435 36.04 234.435 33.73C234.435 33.31 234.155 32.96 233.665 32.96C232.055 32.96 228.345 36.04 219.525 44.09C218.545 44.93 218.615 44.09 219.105 43.6ZM282.393 36.25C282.393 38 281.063 39.12 280.223 39.12C279.943 39.12 279.733 38.98 279.733 38.7C279.733 38.56 279.803 38.42 279.943 38.28C280.433 37.79 280.643 37.16 280.643 36.39C280.643 35.34 279.873 34.64 278.123 34.64C271.543 34.64 260.343 45.49 260.343 50.11C260.343 50.95 260.763 51.37 261.323 51.37C263.703 51.37 270.773 44.3 274.413 40.52C275.603 39.26 276.233 38.84 277.213 38.84C278.193 38.84 279.243 39.54 279.243 40.87C279.243 43.74 277.983 48.22 275.813 53.19C281.063 50.6 286.173 47.52 290.583 43.6C291.563 42.76 291.493 43.6 291.003 44.09C286.383 48.36 280.853 51.65 275.253 54.38C269.863 66.28 259.643 80.35 249.563 80.35C245.083 80.35 241.723 77.34 241.723 73.07C241.723 66.98 247.673 63.97 258.523 60.19C262.583 58.72 267.063 57.11 271.613 55.15C274.413 49.41 276.163 44.09 276.163 41.15C276.163 40.94 276.023 40.8 275.813 40.8C275.603 40.8 275.393 40.94 274.833 41.5C268.113 48.5 263.773 52.56 260.553 52.56C258.453 52.56 257.053 51.51 257.053 49.13C257.053 43.32 269.863 32.96 277.493 32.96C280.783 32.96 282.393 34.22 282.393 36.25ZM259.713 60.89C250.053 64.6 244.033 68.31 244.033 73.63C244.033 77.13 246.063 78.81 249.143 78.81C256.773 78.81 265.523 67.12 270.983 56.34C266.993 58.09 263.073 59.56 259.713 60.89ZM37.1722 79.83C28.8422 84.1 19.8822 90.12 19.8822 97.68C19.8822 101.67 22.2622 101.95 22.2622 102.44C22.2622 102.65 22.0522 102.79 21.7022 102.79C19.8122 102.79 16.1022 99.57 16.1022 95.86C16.1022 88.44 25.3422 83.54 33.3922 79.9C42.6322 75.7 47.8822 72.76 50.5422 70.1C52.6422 67.93 54.6022 66.88 55.5822 66.88C55.9322 66.88 56.1422 67.02 56.1422 67.44C56.1422 68.14 54.6722 68.14 52.8522 69.68C48.5822 73.18 42.5622 85.01 37.4522 96.56C30.9422 111.4 23.8722 126.45 10.9222 126.45C4.97219 126.45 0.702187 121.27 0.702187 119.73C0.702187 119.45 0.842187 119.31 1.05219 119.31C1.54219 119.31 3.36219 122.25 8.40219 122.25C17.5022 122.25 26.3922 109.58 35.4222 93.41C40.1822 84.8 44.0322 78.29 47.4622 73.88C45.0122 75.63 41.8622 77.38 37.1722 79.83ZM42.123 108.6C50.943 100.55 55.003 96.91 57.313 96.91C58.643 96.91 59.763 97.96 59.763 99.5C59.763 102.65 50.593 110.7 48.773 114.55L48.913 114.69C52.273 111.19 62.563 101.32 66.623 101.32C68.303 101.32 69.563 102.37 69.563 103.77C69.563 106.64 67.813 109.3 67.813 112.59C67.813 114.06 68.443 115.11 70.333 115.11C73.903 115.11 79.4331 111.54 82.6531 108.6C83.6331 107.76 83.563 108.6 83.073 109.09C79.643 112.24 73.343 116.58 69.213 116.58C66.273 116.58 63.963 115.04 63.963 112.1C63.963 108.88 66.623 105.66 66.623 103.7C66.623 103.14 66.273 102.86 65.643 102.86C62.213 102.86 52.833 112.1 48.283 116.86C47.513 117.56 47.023 118.12 46.253 118.12C45.343 118.12 44.223 117.28 44.223 116.09C44.223 111.89 57.453 101.04 57.453 98.73C57.453 98.31 57.173 97.96 56.683 97.96C55.073 97.96 51.363 101.04 42.543 109.09C41.563 109.93 41.633 109.09 42.123 108.6ZM83.6402 115.67C83.6402 110.98 94.7702 103.07 94.7702 100.83C94.7702 100.48 94.6302 100.2 94.1402 100.2C92.6702 100.2 89.3102 103.42 83.0802 109.09C82.1002 109.93 82.1702 109.09 82.6602 108.6C89.3102 102.51 92.6702 99.29 94.5602 99.29C96.1002 99.29 96.9402 100.13 96.9402 101.6C96.9402 105.24 87.2102 112.31 87.2102 116.16C87.2102 117 87.7002 117.42 88.5402 117.42C89.5902 117.42 91.4802 116.51 94.3502 114.06V113.92C94.3502 111.96 96.4502 109.86 97.7102 109.86C98.0602 109.86 98.3402 109.93 98.5502 110.07C103.03 105.45 106.88 99.85 106.88 96.56C106.88 96.35 106.95 96.14 107.16 96.14C108.14 96.14 109.54 97.4 109.54 98.8C109.54 101.53 103.8 108.18 97.6402 113.22C97.5002 113.43 97.3602 113.78 97.3602 114.13C97.3602 115.25 98.6902 116.3 101.21 116.3C105.41 116.3 110.87 113.85 116.54 108.6C117.52 107.76 117.45 108.6 116.96 109.09C111.43 114.2 104.85 117.35 100.3 117.35C97.4302 117.35 95.4702 116.72 94.7002 115.46C91.4802 117.77 88.9602 118.96 87.2802 118.96C85.0402 118.96 83.6402 117.77 83.6402 115.67ZM135.606 90.89C136.586 90.89 137.216 91.45 137.216 92.36C137.216 93.62 135.396 96.07 134.066 96.07C133.226 96.07 132.456 95.37 132.456 94.32C132.456 92.92 134.556 90.89 135.606 90.89ZM116.566 108.6C123.006 102.72 126.156 100.2 128.046 100.2C129.726 100.2 130.496 101.18 130.496 102.51C130.496 105.66 124.196 110.35 124.196 114.2C124.196 115.53 125.036 116.16 126.576 116.16C129.936 116.16 135.956 112.94 140.646 108.6C141.626 107.76 141.556 108.6 141.066 109.09C136.306 113.36 129.656 117.63 124.826 117.63C122.096 117.63 120.346 116.44 120.346 113.99C120.346 109.72 127.906 104.19 127.906 101.95C127.906 101.6 127.766 101.32 127.276 101.32C126.226 101.32 123.426 103.14 116.986 109.09C116.006 109.93 116.076 109.09 116.566 108.6ZM150.779 100.27C150.849 100.13 150.709 100.06 150.569 100.2C147.699 103 144.479 106.01 141.049 109.09C140.069 109.93 140.139 109.09 140.629 108.6C145.039 104.54 150.149 99.71 153.019 96.7L156.169 93.48C154.489 92.78 152.669 92.22 150.359 92.22C146.369 92.22 143.569 93.76 143.569 95.65C143.569 96.14 143.709 96.28 143.709 96.42C143.709 96.56 143.639 96.7 143.429 96.7C143.079 96.7 142.589 96 142.589 95.09C142.589 92.29 145.389 89.84 149.099 89.84C152.599 89.84 155.119 91.03 157.359 92.29C158.899 90.82 160.509 89.28 162.329 87.74C163.519 86.76 164.499 86.27 165.199 86.27C166.109 86.27 166.739 86.83 166.739 87.67C166.739 89.14 164.429 91.59 161.279 94.39C162.259 94.81 163.379 95.02 164.569 95.02C167.019 95.02 167.789 94.18 168.139 94.18C168.419 94.18 168.489 94.32 168.489 94.53C168.489 95.02 166.739 96.14 164.079 96.14C162.539 96.14 161.279 95.86 160.089 95.37C158.199 96.98 156.029 98.73 153.929 100.41C146.439 109.02 142.589 114.76 142.589 118.05C142.589 119.45 143.289 120.15 145.039 120.15C149.309 120.15 158.339 113.5 163.659 108.6C164.639 107.76 164.569 108.6 164.079 109.09C158.689 114.06 148.819 121.55 143.989 121.55C141.399 121.55 139.579 120.15 139.579 117.63C139.579 113.64 143.989 107.97 150.779 100.27ZM179.766 106.71C179.766 106.57 179.626 106.43 179.486 106.43C179.136 106.43 178.856 106.71 177.946 107.62C170.806 115.18 166.256 119.59 162.826 119.59C160.796 119.59 159.606 118.54 159.606 116.51C159.606 109.79 172.906 99.01 181.446 99.01C184.316 99.01 186.066 100.27 186.066 102.23C186.066 103.84 184.736 104.96 183.966 104.96C183.616 104.96 183.406 104.82 183.406 104.47C183.406 104.33 183.476 104.19 183.616 104.05C184.176 103.49 184.526 102.93 184.526 102.16C184.526 101.39 183.896 100.9 182.496 100.9C175.776 100.9 163.246 112.31 163.246 117C163.246 117.77 163.526 118.05 164.086 118.05C166.536 118.05 173.746 110.7 177.456 106.85C178.646 105.59 179.276 104.96 180.326 104.96C181.306 104.96 182.356 105.66 182.356 106.99C182.356 108.6 179.276 112.1 179.276 114.69C179.276 115.74 179.836 116.3 180.816 116.3C183.476 116.3 188.936 112.87 193.556 108.6C194.536 107.76 194.466 108.6 193.976 109.09C189.356 113.29 183.056 117.56 179.696 117.56C177.386 117.56 175.986 116.44 175.986 114.48C175.986 111.4 179.766 107.76 179.766 106.71ZM203.689 100.27C203.759 100.13 203.619 100.06 203.479 100.2C200.609 103 197.389 106.01 193.959 109.09C192.979 109.93 193.049 109.09 193.539 108.6C197.949 104.54 203.059 99.71 205.929 96.7L209.079 93.48C207.399 92.78 205.579 92.22 203.269 92.22C199.279 92.22 196.479 93.76 196.479 95.65C196.479 96.14 196.619 96.28 196.619 96.42C196.619 96.56 196.549 96.7 196.339 96.7C195.989 96.7 195.499 96 195.499 95.09C195.499 92.29 198.299 89.84 202.009 89.84C205.509 89.84 208.029 91.03 210.269 92.29C211.809 90.82 213.419 89.28 215.239 87.74C216.429 86.76 217.409 86.27 218.109 86.27C219.019 86.27 219.649 86.83 219.649 87.67C219.649 89.14 217.339 91.59 214.189 94.39C215.169 94.81 216.289 95.02 217.479 95.02C219.929 95.02 220.699 94.18 221.049 94.18C221.329 94.18 221.399 94.32 221.399 94.53C221.399 95.02 219.649 96.14 216.989 96.14C215.449 96.14 214.189 95.86 212.999 95.37C211.109 96.98 208.939 98.73 206.839 100.41C199.349 109.02 195.499 114.76 195.499 118.05C195.499 119.45 196.199 120.15 197.949 120.15C202.219 120.15 211.249 113.5 216.569 108.6C217.549 107.76 217.479 108.6 216.989 109.09C211.599 114.06 201.729 121.55 196.899 121.55C194.309 121.55 192.489 120.15 192.489 117.63C192.489 113.64 196.899 107.97 203.689 100.27ZM235.616 90.89C236.596 90.89 237.226 91.45 237.226 92.36C237.226 93.62 235.406 96.07 234.076 96.07C233.236 96.07 232.466 95.37 232.466 94.32C232.466 92.92 234.566 90.89 235.616 90.89ZM216.576 108.6C223.016 102.72 226.166 100.2 228.056 100.2C229.736 100.2 230.506 101.18 230.506 102.51C230.506 105.66 224.206 110.35 224.206 114.2C224.206 115.53 225.046 116.16 226.586 116.16C229.946 116.16 235.966 112.94 240.656 108.6C241.636 107.76 241.566 108.6 241.076 109.09C236.316 113.36 229.666 117.63 224.836 117.63C222.106 117.63 220.356 116.44 220.356 113.99C220.356 109.72 227.916 104.19 227.916 101.95C227.916 101.6 227.776 101.32 227.286 101.32C226.236 101.32 223.436 103.14 216.996 109.09C216.016 109.93 216.086 109.09 216.576 108.6ZM258.629 103.07C258.629 106.01 256.319 110.21 253.169 113.43C253.029 113.64 252.959 113.92 252.959 114.13C252.959 115.25 254.289 116.37 256.669 116.37C260.589 116.37 266.539 113.85 272.209 108.6C273.189 107.76 273.119 108.6 272.629 109.09C267.099 114.2 260.239 117.35 255.969 117.35C253.309 117.35 251.559 116.79 250.649 115.67C248.479 117.28 246.099 118.4 243.929 118.4C241.059 118.4 238.959 116.79 238.959 113.43C238.959 107.83 248.479 99.01 254.359 99.01C257.229 99.01 258.629 100.34 258.629 103.07ZM257.299 102.79C257.299 101.32 256.599 100.48 255.269 100.48C250.719 100.48 243.159 109.37 243.159 114.27C243.159 115.88 243.929 116.72 245.399 116.72C246.729 116.72 248.479 115.88 250.159 114.48C250.089 114.27 250.089 113.99 250.089 113.71C250.089 111.82 252.189 109.93 253.589 109.93C253.869 109.93 254.079 110 254.289 110.14C256.039 107.69 257.299 105.03 257.299 102.79ZM272.221 108.6C281.041 100.55 285.101 96.91 287.411 96.91C288.741 96.91 289.861 97.96 289.861 99.5C289.861 102.65 280.691 110.7 278.871 114.55L279.011 114.69C282.371 111.19 292.661 101.32 296.721 101.32C298.401 101.32 299.661 102.37 299.661 103.77C299.661 106.64 297.911 109.3 297.911 112.59C297.911 114.06 298.541 115.11 300.431 115.11C304.001 115.11 309.531 111.54 312.751 108.6C313.731 107.76 313.661 108.6 313.171 109.09C309.741 112.24 303.441 116.58 299.311 116.58C296.371 116.58 294.061 115.04 294.061 112.1C294.061 108.88 296.721 105.66 296.721 103.7C296.721 103.14 296.371 102.86 295.741 102.86C292.311 102.86 282.931 112.1 278.381 116.86C277.611 117.56 277.121 118.12 276.351 118.12C275.441 118.12 274.321 117.28 274.321 116.09C274.321 111.89 287.551 101.04 287.551 98.73C287.551 98.31 287.271 97.96 286.781 97.96C285.171 97.96 281.461 101.04 272.641 109.09C271.661 109.93 271.731 109.09 272.221 108.6Z" fill="white"/>
</svg>
