<svg width="190" height="24" viewBox="0 0 190 24" fill="none" xmlns="http://www.w3.org/2000/svg">
<path d="M0.707844 23V22.244C3.69584 22.244 4.12784 21.632 4.12784 18.032V6.332C4.12784 2.732 3.69584 2.156 0.707844 2.156V1.4H10.4278V2.156C7.43984 2.156 7.00784 2.732 7.00784 6.332V10.868H19.2118V6.332C19.2118 2.732 18.7438 2.156 15.7558 2.156V1.4H25.5478V2.156C22.5238 2.156 22.0918 2.732 22.0918 6.332V18.032C22.0918 21.632 22.5238 22.244 25.5478 22.244V23H15.7558V22.244C18.7438 22.244 19.2118 21.632 19.2118 18.032V12.2H7.00784V18.032C7.00784 21.632 7.43984 22.244 10.4278 22.244V23H0.707844ZM28.2352 23V22.244C30.6112 22.244 31.0792 21.632 31.0792 18.032V16.232C31.0792 12.632 30.6112 12.056 28.2352 12.056V11.3L33.6352 10.4V18.032C33.6352 21.632 34.0672 22.244 36.4792 22.244V23H28.2352ZM32.3392 6.872C31.4752 6.872 30.7552 6.152 30.7552 5.252C30.7552 4.388 31.4752 3.668 32.3392 3.668C33.2032 3.668 33.9232 4.388 33.9232 5.252C33.9232 6.152 33.2032 6.872 32.3392 6.872ZM37.852 23V22.244C40.264 22.244 40.696 21.632 40.696 18.032V6.656C40.696 3.056 40.264 2.444 37.852 2.444V1.688L43.252 0.787998V16.088L46.276 13.64C47.464 12.668 46.96 11.732 45.196 11.732V11.012H52.396V11.732C52.396 11.732 50.02 11.876 48.616 13.028L45.556 15.548L51.352 21.38C51.964 21.992 53.008 22.244 53.476 22.244V23H49.48L43.684 17.024L43.252 17.384V18.032C43.252 21.632 43.72 22.244 46.096 22.244V23H37.852ZM57.9914 23.468C56.2274 23.468 54.7514 22.352 54.7514 20.444C54.7514 17.384 58.3154 16.052 62.4194 15.332C62.4194 12.632 62.0594 11.552 60.0074 11.552C59.1794 11.552 57.9554 12.128 57.9554 13.28C57.9554 14 57.4154 14.54 56.7314 14.54C56.0114 14.54 55.4714 14 55.4714 13.28C55.4714 11.552 57.7394 10.4 60.0434 10.4C63.5354 10.4 64.9754 11.876 64.9754 15.296V20.732C64.9754 21.632 65.2634 22.136 65.8034 22.136C66.1634 22.136 66.5594 21.848 66.8114 21.596L67.3154 22.28C66.6314 23 65.7314 23.396 64.9394 23.396C63.5354 23.396 62.6714 22.604 62.4914 21.308C60.7274 22.892 59.4314 23.468 57.9914 23.468ZM59.1434 21.848C59.8994 21.848 60.7634 21.596 62.4194 20.12V16.448C58.9994 17.24 57.4514 18.428 57.4514 20.012C57.4514 21.164 58.2434 21.848 59.1434 21.848ZM69.2625 23V22.244C71.6385 22.244 72.1065 21.632 72.1065 18.032V16.232C72.1065 12.632 71.6385 12.056 69.2625 12.056V11.3L74.0505 10.4C74.2305 10.76 74.5545 12.236 74.6625 12.992C75.3825 11.552 77.0025 10.4 78.4425 10.4C80.4225 10.4 81.2865 11.732 81.2865 12.632C81.2865 13.424 80.9625 14.324 79.8465 14.324C79.1625 14.324 78.5865 13.712 78.5865 13.028C78.5865 12.272 78.1545 11.84 77.4345 11.84C76.6065 11.84 74.6625 13.172 74.6625 16.052V18.032C74.6625 21.632 75.0945 22.244 77.5065 22.244V23H69.2625ZM90.0193 23.612C86.7073 23.612 85.5553 21.272 85.5553 18.212V15.944C85.5553 12.344 85.1233 11.732 82.7113 11.732V11.012H88.1113V18.032C88.1113 20.372 88.9033 21.884 90.8473 21.884C92.2513 21.884 94.7353 20.552 94.7353 18.32V15.944C94.7353 12.344 94.2673 11.732 91.8553 11.732V11.012H97.2553V18.068C97.2553 21.488 97.8313 21.92 99.7393 21.92V22.604L95.3113 23.504C95.1313 23.144 94.8073 21.92 94.7353 21.308C93.8353 22.244 92.1073 23.612 90.0193 23.612ZM109.224 10.148C111.744 8.708 114.084 7.376 114.084 4.928C114.084 3.344 112.86 2.192 111.24 2.192C108.936 2.192 107.82 3.992 107.82 5.396C107.82 7.052 108.324 8.528 109.224 10.148ZM110.484 22.208C112.356 22.208 113.724 21.452 114.696 20.3C112.104 17.564 109.764 15.008 108.108 12.668C106.776 13.82 105.696 15.188 105.696 17.6C105.696 19.94 107.676 22.208 110.484 22.208ZM110.196 23.612C106.776 23.612 103.104 21.632 103.104 17.312C103.104 14.432 104.976 12.776 107.208 11.372C105.948 9.392 105.228 7.592 105.228 5.972C105.228 2.984 107.964 0.787998 111.24 0.787998C114.012 0.787998 116.388 2.48 116.388 4.928C116.388 8.132 112.86 9.248 109.908 11.264C111.24 13.244 113.184 15.476 115.776 18.32C116.028 17.636 116.208 16.916 116.28 16.16C116.604 13.532 116.1 12.92 113.112 12.92V12.164H121.248V12.92C118.224 12.92 117.864 13.64 117.504 16.16C117.36 17.312 117.108 18.392 116.676 19.292C118.08 20.912 119.7 22.172 121.032 22.172C121.68 22.172 122.472 21.812 123.372 20.912L123.984 21.524C122.976 22.892 121.536 23.612 120.348 23.612C118.404 23.612 116.964 22.568 115.56 21.2C114.336 22.712 112.572 23.612 110.196 23.612ZM130.616 5.684V18.032C130.616 21.632 131.084 22.244 134.072 22.244V23H125.864V22.244C128.852 22.244 129.284 21.632 129.284 18.032V6.332C129.284 2.732 128.852 2.156 125.864 2.156V1.4H131.768L139.4 18.932L146.996 1.4H152.864V2.156C149.84 2.156 149.408 2.732 149.408 6.332V18.032C149.408 21.632 149.84 22.244 152.864 22.244V23H143.144V22.244C146.132 22.244 146.564 21.632 146.564 18.032V5.756L138.86 23.612H138.392L130.616 5.684ZM155.571 23V22.244C157.947 22.244 158.415 21.632 158.415 18.032V16.232C158.415 12.632 157.947 12.056 155.571 12.056V11.3L160.971 10.4V18.032C160.971 21.632 161.403 22.244 163.815 22.244V23H155.571ZM159.675 6.872C158.811 6.872 158.091 6.152 158.091 5.252C158.091 4.388 158.811 3.668 159.675 3.668C160.539 3.668 161.259 4.388 161.259 5.252C161.259 6.152 160.539 6.872 159.675 6.872ZM165.188 23V22.244C167.6 22.244 168.032 21.632 168.032 18.032V6.656C168.032 3.056 167.6 2.444 165.188 2.444V1.688L170.588 0.787998V16.088L173.612 13.64C174.8 12.668 174.296 11.732 172.532 11.732V11.012H179.732V11.732C179.732 11.732 177.356 11.876 175.952 13.028L172.892 15.548L178.688 21.38C179.3 21.992 180.344 22.244 180.812 22.244V23H176.816L171.02 17.024L170.588 17.384V18.032C170.588 21.632 171.056 22.244 173.432 22.244V23H165.188ZM181.727 23V22.244C184.103 22.244 184.571 21.632 184.571 18.032V16.232C184.571 12.632 184.103 12.056 181.727 12.056V11.3L187.127 10.4V18.032C187.127 21.632 187.559 22.244 189.971 22.244V23H181.727ZM185.831 6.872C184.967 6.872 184.247 6.152 184.247 5.252C184.247 4.388 184.967 3.668 185.831 3.668C186.695 3.668 187.415 4.388 187.415 5.252C187.415 6.152 186.695 6.872 185.831 6.872Z" fill="white"/>
</svg>
